<svg width="184" height="126" fill="none" xmlns="http://www.w3.org/2000/svg"><g clip-path="url(#a)" fill="#0A0908"><path d="m82.991 63.711-8.1-16.258H71.43l10.036 20.073h.88l9.568-20.073h-1.35L82.99 63.711ZM56.227 57.842h8.217v-1.115h-8.1V48.51h11.797c-.117-.353-.352-.705-.469-1.057H53.057v20.132h15.26c.177-.352.412-.763.646-1.115H56.227v-8.628ZM32.339 57.313V48.51h7.337c2.289-.118 4.225 1.643 4.343 3.873v.352c0 2.465-1.996 4.52-4.46 4.52l-7.22.058Zm14.732-4.519c0-3.345-3.639-5.341-6.28-5.341H29.11v20.132h3.228V58.37h5.81l7.513 9.156h3.992l-8.1-9.39c3.345-.412 5.517-2.583 5.517-5.342M119.087 46.573a12.699 12.699 0 0 0-2.113 0c-5.986.528-10.975 5.165-10.975 10.389 0 3.873 2.582 7.688 7.865 8.451-3.581-2.64-4.344-5.517-4.344-8.334 0-3.991 2.759-9.273 8.511-9.332 5.341-.059 8.452 4.754 8.452 9.273 0 2.876-.939 6.809-5.107 8.687a8.418 8.418 0 0 1-3.404.704H98.427V47.395h-3.11v20.19h23.888c6.339 0 10.799-5.517 10.799-10.682s-4.812-9.802-10.917-10.33ZM149.49 62.126l-13.323-14.673h-2.641v20.073h1.291V50.74l15.436 16.786h.529V47.453h-1.292v14.673ZM31.576 75.978h-1.291v-2.23h1.291c1.056 0 1.467.352 1.467 1.115s-.47 1.115-1.467 1.115Zm0-3.286h-2.465v6.925h1.174v-2.582h1.174c1.408 0 2.7-.47 2.7-2.172 0-1.702-1.174-2.171-2.583-2.171M41.025 75.861v-2.113h1.233c.998 0 1.467.176 1.467 1.056 0 .88-.47 1.057-1.467 1.057h-1.233Zm3.933-1.056c0-1.41-.998-2.114-2.583-2.114H39.91v6.868h1.115v-2.7H42.2l1.526 2.7h1.233l-1.585-2.876c.94-.118 1.644-.94 1.585-1.879M53.644 78.678c-1.174 0-1.937-.88-1.937-2.524 0-1.644.763-2.524 1.937-2.524s1.937.88 1.937 2.524c0 1.643-.822 2.524-1.937 2.524Zm0-6.104c-1.76 0-3.11 1.232-3.11 3.521 0 2.29 1.408 3.58 3.11 3.58s3.11-1.232 3.11-3.58c0-2.347-1.349-3.521-3.11-3.521ZM62.566 72.692v6.925h1.174v-2.934h2.289v-1.057h-2.29v-1.82h3.111v-1.114h-4.284Zm9.978 0v6.925h4.636v-1.056h-3.462v-2.054h2.347v-.998h-2.347v-1.702h3.286v-1.115h-4.46ZM85.397 75.626c-1.115-.353-1.585-.587-1.585-1.174 0-.47.411-.763 1.174-.763.705 0 1.41.352 1.761.998l.822-.587c-.47-.998-1.526-1.526-2.583-1.468-1.408 0-2.347.763-2.347 1.937 0 1.35 1.056 1.644 2.347 2.113 1.116.352 1.526.646 1.526 1.174 0 .528-.587.88-1.408.88-.822 0-1.526-.47-1.878-1.173l-.88.47a2.89 2.89 0 0 0 2.816 1.76c1.644 0 2.583-.88 2.583-2.054.059-1.35-.998-1.761-2.348-2.113M96.197 75.626c-1.115-.352-1.585-.587-1.585-1.174 0-.47.411-.763 1.174-.763.704 0 1.409.353 1.76.998l.823-.587c-.47-.939-1.526-1.526-2.583-1.467-1.409 0-2.348.763-2.348 1.937 0 1.35 1.057 1.643 2.348 2.113 1.115.352 1.526.645 1.526 1.173 0 .529-.528.88-1.409.88-.821 0-1.526-.469-1.878-1.173l-.821.41a2.89 2.89 0 0 0 2.817 1.762c1.643 0 2.582-.88 2.582-2.055 0-1.29-1.056-1.76-2.406-2.054M104.531 72.692h1.174v6.925h-1.174v-6.925ZM114.685 78.678c-1.173 0-1.936-.88-1.936-2.524 0-1.644.763-2.524 1.936-2.524 1.174 0 1.937.88 1.937 2.524 0 1.643-.763 2.524-1.937 2.524Zm0-6.104c-1.76 0-3.11 1.232-3.11 3.521 0 2.29 1.408 3.58 3.11 3.58 1.703 0 3.111-1.232 3.111-3.58 0-2.347-1.35-3.521-3.111-3.521ZM128.126 72.692v4.871h-.058l-3.229-4.871h-1.173v6.925h1.056V74.57l3.404 5.047h1.057v-6.925h-1.057Zm9.626 1.467.998 2.817h-1.937l.939-2.817Zm-.47-1.468-2.465 6.926h1.115l.587-1.584h2.642l.586 1.584h1.174l-2.406-6.925h-1.233Zm9.157 0v6.926h4.343v-1.056h-3.111v-5.87h-1.232ZM154.69 74.3c0 .569-.202 1.055-.605 1.458a1.982 1.982 0 0 1-1.455.602 1.99 1.99 0 0 1-1.457-.602 1.99 1.99 0 0 1-.603-1.458c0-.568.201-1.053.603-1.455a1.986 1.986 0 0 1 1.457-.605c.568 0 1.054.202 1.455.605.403.402.605.887.605 1.455Zm-.455 0c0-.443-.157-.823-.471-1.14a1.534 1.534 0 0 0-1.134-.477 1.54 1.54 0 0 0-1.136.477 1.567 1.567 0 0 0-.469 1.14c0 .443.156.824.469 1.141a1.54 1.54 0 0 0 1.136.476c.443 0 .821-.158 1.134-.476.314-.317.471-.698.471-1.14Zm-.49.977h-.622l-.598-.753h-.195v.753h-.486v-2.05h.748c.138 0 .249.005.333.016.085.011.168.04.25.086a.53.53 0 0 1 .201.19.564.564 0 0 1 .061.279.55.55 0 0 1-.123.371.82.82 0 0 1-.315.224l.746.884Zm-.848-1.441a.263.263 0 0 0-.026-.117.2.2 0 0 0-.088-.088.351.351 0 0 0-.124-.04 1.348 1.348 0 0 0-.177-.01h-.152v.579h.117c.073 0 .14-.006.202-.017a.33.33 0 0 0 .145-.062.221.221 0 0 0 .077-.097.375.375 0 0 0 .026-.148Z"/></g><defs><clipPath id="a"><path fill="#fff" transform="translate(29 46.514)" d="M0 0h126v32.972H0z"/></clipPath></defs></svg>