<svg width="184" height="126" fill="none" xmlns="http://www.w3.org/2000/svg"><g clip-path="url(#a)"><path fill-rule="evenodd" clip-rule="evenodd" d="M39.278 67.948a11.375 11.375 0 0 1-4.666-7.332 11.411 11.411 0 0 1 1.862-8.498 11.311 11.311 0 0 1 7.297-4.687 11.275 11.275 0 0 1 8.459 1.87l2.378-3.442a13.798 13.798 0 0 0-7.685-2.316c-7.595 0-13.75 6.078-13.75 13.577a13.537 13.537 0 0 0 1.574 6.319 13.466 13.466 0 0 0 4.338 4.841c.296.207.867.534.965.436.098-.098-.471-.552-.772-.756v-.012Zm11.104-4.07v-4.127h11.046c-.44 8.103-7.304 14.541-15.702 14.541-8.643 0-15.656-6.813-15.726-15.244v-.126c0-.17.075-.532.226-.532.15 0 .15.423.15.597.309 7.973 7.552 13.993 14.987 13.993 5.813 0 10.055-3.684 11.725-9.102h-6.706Zm4.374 13.915c.231.098.437.248.602.438l.725-.507c-.547-.531-1.237-.725-2.052-.725-1.297 0-2.508.584-2.508 1.764 0 1.023.79 1.403 1.826 1.688l.198.056c1.173.332 1.72.487 1.72 1.204 0 .7-.842 1.06-1.595 1.06-.634 0-1.259-.229-1.565-.682l-.752.504c.501.602 1.41.854 2.257.854 1.332 0 2.586-.6 2.586-1.802s-1.028-1.51-2.2-1.819c-1.171-.31-1.547-.562-1.547-1.129 0-.726.802-1.03 1.572-1.03.25-.015.502.028.733.126Zm-16.922-.643h-.871v6.138h.87V77.15Zm3.9 0h1.095l4.257 5.095h.017V77.15h.873v6.138h-1.101l-4.251-5.105h-.02v5.105h-.87V77.15Zm22.904.675h-2.43v5.463h-.87v-5.463h-2.426v-.672h5.726v.672Zm3.102-.675h.867v6.138h-.867V77.15Zm9.69.675h-2.428v5.463h-.866v-5.463h-2.43v-.672h5.724v.672Zm5.849 5.614c2.006 0 2.759-1.166 2.759-2.5l.017-3.779h-.873v3.692c0 .985-.426 1.922-1.893 1.922-1.468 0-1.896-.937-1.896-1.922V77.16h-.873v3.78c0 1.333.752 2.5 2.759 2.5Zm11.55-5.614H92.4v5.463h-.87v-5.463h-2.423v-.672h5.72v.672Zm10.152 1.121a1.522 1.522 0 0 0-2.26.684 1.55 1.55 0 0 0 .138 1.44 1.53 1.53 0 0 0 1.568.657 1.527 1.527 0 0 0 1.202-1.204 1.531 1.531 0 0 0-.648-1.577Zm9.775.903h1.473c.873 0 1.474-.328 1.474-1.008 0-.68-.601-1.008-1.474-1.008h-1.473v2.016Zm-.862-2.689h2.179c1.345 0 2.568.398 2.568 1.68 0 1.346-1.366 1.697-2.405 1.697h-1.48v2.771h-.87l.008-6.148Zm10.215.925h.018l1.447 3.024h-2.99l1.525-3.024Zm.442-.925h-.818l-3.238 6.138h.991l.752-1.512h3.664l.753 1.512h1.021l-3.125-6.138Zm7.038 2.689h.782c.963 0 2.218 0 2.218-1.008 0-.885-.926-1.008-1.773-1.008h-1.227v2.016Zm-.866-2.689h1.874c1.42 0 2.93.174 2.93 1.69 0 .888-.695 1.472-1.839 1.616l2.081 2.832h-1.07l-1.989-2.772h-1.121v2.772h-.866V77.16Zm8.403-.01h.876v6.138h-.876V77.15Zm8.259 1.08a1.651 1.651 0 0 0-1.342-.564c-.77 0-1.567.305-1.567 1.031 0 .567.379.819 1.544 1.129 1.167.31 2.201.617 2.201 1.82 0 1.201-1.255 1.801-2.582 1.801-.853 0-1.768-.252-2.257-.854l.753-.504c.313.453.932.683 1.562.683.752 0 1.603-.36 1.603-1.061 0-.715-.55-.871-1.716-1.202l-.205-.058c-1.039-.285-1.816-.665-1.816-1.688 0-1.18 1.204-1.764 2.49-1.764.818 0 1.506.194 2.052.725l-.72.507Zm-83.88-24.353-.016-.418 3.228-.003v.857l-.035 9.401c0 4.025 0 8.588 6.29 8.588 6.173 0 6.173-5.48 6.173-9.104 0-5.259-.002-7.464-.073-9.324l-.017-.42h2.322v.413c-.014.882-.01 1.995-.005 3.22.003.656.005 1.345.005 2.049.016 2.111.03 4.495 0 6.647-.062 5.433-3.413 8.676-8.959 8.676-6.135 0-8.989-2.74-8.989-8.623l.023-2.52.02-2.016.032-3.643.003-.213v-.002c.016-1.42.03-2.648-.003-3.565Zm31.577-.791v.41c.035 2.45.251 18.955.206 20.159l-.02.42h2.134V71.65c0-3.417 0-9.986.025-12.5l.59.597.068.069c4.744 4.829 9.648 9.82 13.812 14.513l.12.136h1.119v-.413c-.022-1.012-.099-13.018-.131-18.022v-.009l-.001-.048v-.13a2582.15 2582.15 0 0 1-.013-1.98v-.403h-2.373v.415l.01.465.001.02v.012c.044 1.944.207 9.148.24 13.703-3.15-3.088-7.982-8.105-12.163-12.445l-1.005-1.044-1.447-1.5h-1.172Zm24.58 10.686c0 5.521 2.937 8.82 7.861 8.82 4.939 0 7.888-3.296 7.888-8.82 0-5.523-2.964-8.82-7.888-8.82-4.924 0-7.861 3.3-7.861 8.82Zm-3.448 0c0-6.49 4.437-10.686 11.309-10.686 6.887 0 11.342 4.19 11.342 10.686 0 6.496-4.47 10.692-11.342 10.692-6.872 0-11.309-4.2-11.309-10.692Zm38.369-10.313c-2.806.093-5.555.143-7.946.143-2.39 0-5.136-.05-7.943-.143h-.418v2.111l.418-.015c1.536-.055 4.138-.098 6.231-.103.05 1.82.082 3.926.082 5.864v4.94c0 2.269-.012 4.887-.135 7.422l-.02.423h3.574l-.02-.423c-.123-2.52-.136-5.156-.136-7.421v-4.954c0-1.938.031-4.032.084-5.864 2.091 0 4.647.048 6.229.104l.417.012v-2.109l-.417.013Zm-68.059 0h3.319v20.488h-3.319V53.46Z" fill="#0A0908"/></g><defs><clipPath id="a"><path fill="#fff" transform="translate(30 43.553)" d="M0 0h125v39.894H0z"/></clipPath></defs></svg>