<svg width="184" height="126" fill="none" xmlns="http://www.w3.org/2000/svg"><path d="M69.53 49.212c-2.23 0-6.345 1.058-6.345 14.096 0 13.05 4.114 14.312 6.345 14.312 1.05 0 1.693-.217 1.693-.217v-1.526a4.176 4.176 0 0 1-.966.109c-1.944 0-4.794-1.707-4.794-12.678 0-10.755 2.743-12.461 4.687-12.461.393 0 .799.108 1.085.216v-1.598c-.012.012-.656-.253-1.705-.253ZM78.152 49.393H76.46v28.046H78.7v-9.913c.751.937 1.693 2.5 2.42 4.29.645 1.634 1.015 3.809 1.015 5.636h2.087c0-1.887-.394-4.218-1.336-6.501a16.606 16.606 0 0 0-2.528-4.218c1.335-.95 4.186-3.677 4.186-9.12-.012-6.766-3.483-8.22-6.393-8.22Zm.537 16.39V51.04c1.55 0 3.566.901 3.566 6.573 0 5.816-2.85 7.919-3.566 8.171ZM97.223 49.393h-7.025V66h-.906v1.634h.906v9.818h7.025v-1.635h-4.795v-8.183h3.686V66h-3.686V51.027h4.795v-1.634ZM117.235 49.393h-1.908l-2.815 19.19-2.815-19.19h-1.037l-2.815 19.19-2.814-19.19h-2.207l4.294 28.059h1.157l2.778-18.17 2.743 18.17h1.145l4.294-28.06ZM64.294 34.576l.286 2.2h-.572l.286-2.2Zm-.322-1.55-.787 5.263h.632l.12-.937h.715l.13.937h.669l-.787-5.263h-.692ZM73.131 33.026l-.966 2.74-.966-2.74h-.346v5.263h.692v-2.812l.465 1.382h.31l.465-1.382v2.812h.692v-5.263h-.346ZM79.178 33.026v2.956h-.227v.577h.227v1.73h1.717v-.577h-1.001V36.56h.787v-.577h-.787v-2.38h1.001v-.576h-1.717ZM86.894 33.026h-.56v5.263h.715v-1.634c.131.144.298.396.418.709.107.288.167.625.167.925h.703c0-.36-.047-.769-.214-1.178a3.194 3.194 0 0 0-.49-.817c.24-.168.752-.66.752-1.682-.012-1.19-.727-1.586-1.49-1.586Zm.155 2.908v-2.32c.322 0 .609.229.609 1.01 0 .89-.454 1.286-.609 1.31ZM94.635 33.026h-.716v5.263h.716v-5.263ZM101.659 32.99c-.537 0-1.431.216-1.431 2.656 0 2.439.894 2.667 1.431 2.667.203 0 .346-.048.346-.048V37.7c-.072.012-.143.024-.227.024-.322 0-.834-.228-.834-2.09 0-1.85.512-2.08.823-2.08.095 0 .166.025.238.037v-.565c0 .012-.155-.036-.346-.036ZM108.469 34.576l.286 2.2h-.572l.286-2.2Zm-.322-1.55-.787 5.263h.632l.119-.937h.716l.131.937h.668l-.787-5.263h-.692ZM116.543 33.026v3.016l-1.156-3.016h-.346v5.263h.691v-3.004l1.169 3.004h.346v-5.263h-.704ZM64.902 88.459c-.453 0-.87.156-1.18.42-.358.325-.55.805-.55 1.382 0 .529.168.986.466 1.31.31.324.74.505 1.24.505 1.05 0 1.73-.721 1.73-1.85 0-.53-.167-.986-.501-1.31-.287-.29-.728-.457-1.205-.457Zm0 3.244c-.393 0-.727-.156-.93-.445-.179-.252-.286-.6-.286-.985 0-.408.095-.757.286-.997.215-.289.525-.42.93-.42.37 0 .68.131.895.384.202.24.31.589.31.997 0 .288-.048.805-.382 1.154-.203.204-.477.312-.823.312ZM68.099 88.567c-.585 0-.597.457-.597.66v.457h-.381v.337h.381v1.97h.394v-1.97h.43v-.337h-.43V89.3c0-.168 0-.397.274-.397.048 0 .12.012.215.024h.012v-.312h-.012l-.048-.012a.819.819 0 0 0-.238-.036ZM69.673 88.567c-.585 0-.597.457-.597.66v.457h-.381v.337h.382v1.97h.393v-1.97h.43v-.337h-.442V89.3c0-.168 0-.397.274-.397.036 0 .108.012.215.024h.012v-.312h-.012l-.06-.012a.532.532 0 0 0-.214-.036ZM70.83 89.684h-.394v2.308h.394v-2.308ZM70.83 88.543h-.394v.469h.394v-.469ZM72.559 89.612c-.358 0-.644.133-.835.385-.167.216-.262.529-.262.865 0 .313.095.601.25.805.203.253.501.385.883.385.44 0 .751-.168.93-.505a1.21 1.21 0 0 0 .131-.384v-.012l-.43-.036v.011c-.023.169-.083.625-.631.625a.654.654 0 0 1-.56-.3c-.096-.144-.144-.36-.144-.613 0-.276.072-.913.68-.913.477 0 .572.36.596.517v.012l.43-.036h.011v-.013c-.155-.72-.787-.793-1.05-.793ZM74.646 89.684h-.394v2.308h.394v-2.308ZM74.646 88.543h-.394v.469h.394v-.469ZM76.22 89.612c-.37 0-.644.145-.787.409-.071.132-.083.24-.095.324v.037l.417.023h.012v-.011c0-.12 0-.47.477-.47.501 0 .501.397.501.626v.048l-.346.024c-.727.06-.942.24-1.061.408a.668.668 0 0 0-.107.349c0 .384.333.66.787.66.417 0 .656-.24.775-.36.036.217.167.325.405.325.096 0 .155-.012.215-.024l.036-.012h.012v-.36h-.012a.422.422 0 0 1-.12.023c-.143 0-.143-.096-.154-.312v-.757c0-.289.011-.565-.251-.781-.215-.12-.5-.169-.704-.169Zm-.13 2.103c-.31 0-.418-.18-.418-.336 0-.144.06-.313.489-.409.203-.048.381-.072.513-.096l.071-.012c0 .325 0 .373-.06.505-.107.228-.322.348-.596.348ZM78.356 88.543h-.394v3.449h.394v-3.449ZM82.338 88.459c-.143 0-.572 0-.918.288a.857.857 0 0 0-.31.673c0 .733.763.89 1.216.985l.287.06c.31.06.644.169.644.565 0 .409-.334.673-.835.673-.287 0-.525-.072-.692-.228-.25-.228-.262-.529-.274-.65v-.011l-.501.06h-.012v.012c.036.48.25.83.644 1.021.227.109.5.169.81.169.382 0 .693-.084.931-.253a.969.969 0 0 0 .441-.84c0-.23-.071-.65-.596-.866a2.907 2.907 0 0 0-.441-.132c-.036-.012-.06-.012-.096-.024l-.381-.096c-.298-.072-.656-.157-.656-.53 0-.24.203-.528.763-.528.25 0 .453.048.596.168.25.193.263.457.275.565v.012l.477-.036v-.012c-.036-.18-.096-.553-.441-.805-.31-.216-.68-.24-.93-.24ZM86.334 89.685h-.406v1.153c0 .277 0 .445-.143.613a.634.634 0 0 1-.501.216c-.143 0-.406-.048-.441-.348-.012-.06-.012-.072-.012-.313v-1.321h-.406v1.345c0 .385 0 .59.167.781.096.109.263.24.56.24.442 0 .68-.264.764-.384v.337h.406v-2.32h.011ZM88.29 89.612c-.203 0-.442.072-.609.193-.071.06-.119.108-.179.168l-.023.024v-.313h-.406v3.39h.406v-1.335c.178.217.44.325.75.325.657 0 1.074-.481 1.074-1.214 0-.384-.119-.697-.334-.925a.87.87 0 0 0-.68-.313Zm-.108 2.091c-.441 0-.692-.312-.692-.829 0-.529.263-.865.692-.877h.036c.417 0 .692.324.692.841 0 .505-.25.709-.322.757a.704.704 0 0 1-.406.108ZM91.14 89.612c-.203 0-.441.072-.597.193-.071.06-.119.108-.178.168l-.024.024v-.313h-.406v3.39h.406v-1.335c.179.217.441.325.751.325.656 0 1.073-.481 1.073-1.214 0-.384-.119-.697-.333-.925a.912.912 0 0 0-.692-.313Zm-.096 2.091c-.44 0-.691-.312-.691-.829 0-.529.262-.865.691-.877h.036c.418 0 .692.324.692.841 0 .505-.25.709-.322.757a.759.759 0 0 1-.406.108ZM93.203 88.543h-.393v3.449h.393v-3.45ZM94.348 89.684h-.393v2.308h.393v-2.308ZM94.348 88.543h-.393v.468h.393v-.468ZM96.066 89.612c-.275 0-.537.096-.74.276-.238.217-.37.541-.37.926 0 .769.43 1.237 1.122 1.237.512 0 .858-.264 1.037-.769v-.024l-.405-.048h-.012v.012c-.096.457-.418.529-.596.529a.672.672 0 0 1-.49-.192.906.906 0 0 1-.226-.637h1.717v-.024c0-.096 0-.264-.035-.469-.132-.6-.609-.817-1.002-.817Zm-.656.997c.047-.42.286-.684.632-.684.56 0 .632.576.644.684H95.41ZM98.928 89.66h-.012c-.155 0-.548.025-.763.421v-.384h-.406v2.307h.406v-1.106c0-.192 0-.384.095-.54a.581.581 0 0 1 .513-.265c.06 0 .107 0 .155.012h.012v-.444ZM101.922 88.963h-.418v.721h-.358v.337h.358v1.478c0 .18 0 .324.096.42.071.072.179.109.357.109.12 0 .251-.025.334-.037h.048v-.336h-.012a.949.949 0 0 1-.25.06c-.155 0-.155-.108-.155-.385v-1.297h.417v-.337h-.417v-.733ZM103.853 89.612c-.393 0-.703.144-.906.433a1.405 1.405 0 0 0-.239.817c0 .553.299 1.202 1.133 1.202.668 0 1.11-.493 1.122-1.226 0-.373-.12-.71-.334-.925-.191-.193-.454-.3-.776-.3Zm-.012 2.115c-.441 0-.679-.312-.679-.865 0-.793.441-.913.715-.913.191 0 .537.072.632.576.012.06.024.169.024.325-.024.757-.441.877-.692.877ZM110.866 88.543h-.596l-1.05 2.8-1.037-2.788v-.012h-.597v3.449h.466l-.048-2.788 1.026 2.776.011.012h.358l1.062-2.824-.06 2.812v.012h.465v-3.45ZM112.667 89.612c-.274 0-.537.096-.739.276-.239.217-.37.541-.37.926 0 .769.429 1.237 1.121 1.237.513 0 .859-.264 1.038-.769l.011-.024-.405-.048h-.012v.012c-.107.457-.417.529-.596.529a.671.671 0 0 1-.489-.192.907.907 0 0 1-.227-.637h1.729v-.024c0-.096 0-.264-.047-.469-.155-.6-.62-.817-1.014-.817Zm-.668.997c.048-.42.286-.684.632-.684.561 0 .632.576.644.684h-1.276ZM115.446 89.612a.78.78 0 0 0-.692.385v-.313h-.405v2.307h.405v-1.31c0-.168 0-.336.167-.504a.556.556 0 0 1 .429-.168c.179 0 .406.084.477.312.024.072.024.144.024.373v1.31h.406v-1.37c0-.193 0-.337-.036-.481-.131-.397-.501-.54-.775-.54ZM117.247 43.624H63.173v.433h54.074v-.433ZM117.247 82.786H63.173v.433h54.074v-.433ZM115.041 86.56v.252h.644v1.73h.346v-1.73h.632v-.252h-1.622Zm3.697 0-.549 1.502-.584-1.502h-.477v1.983h.298v-1.707l.668 1.707h.191l.632-1.707v1.707h.298V86.56h-.477ZM117.283 74.748c-.465 0-.883.18-1.205.493a1.766 1.766 0 0 0-.525 1.237c0 .457.179.89.501 1.214.334.337.764.517 1.217.517.453 0 .882-.18 1.228-.517.322-.324.501-.745.501-1.214 0-.468-.179-.9-.489-1.225a1.724 1.724 0 0 0-1.228-.505Zm0 3.256c-.394 0-.775-.156-1.062-.444a1.534 1.534 0 0 1 .012-2.163c.275-.289.644-.433 1.062-.433.417 0 .787.156 1.085.445.286.288.441.673.441 1.093 0 .409-.155.781-.441 1.07-.31.276-.692.432-1.097.432Zm.047-2.535h-.727v1.983h.334v-.865h.417l.418.865h.369l-.441-.914c.286-.048.465-.252.465-.528-.012-.373-.286-.541-.835-.541Zm-.393.901v-.685h.334c.37 0 .548.096.548.349 0 .252-.167.336-.536.336h-.346Z" fill="#0A0908"/></svg>