<svg width="184" height="126" fill="none" xmlns="http://www.w3.org/2000/svg"><g clip-path="url(#a)"><path d="m78.886 76.933 2.906-5.588h.894v6.632h-.745v-5.142l-2.682 5.142h-.596l-2.683-5.142v5.142h-.745v-6.632h.894l2.757 5.588Zm4.396 1.118V71.42h.745v6.631h-.745Zm17.51-1.267v-5.439h.745v6.632h-.745l-4.322-5.365v5.439h-1.639l-.894-2.012h-3.13l-.893 2.012h-5.142V71.42h.745v5.96h3.8L92 71.42h.67l2.98 6.631V71.42h.746l4.396 5.364Zm-9.76-1.49h2.533l-1.267-2.831-1.267 2.831Zm11.921.447c.149.298.298.596.521.894.224.224.522.447.82.596.298.15.745.224 1.192.224.447 0 .82-.075 1.118-.224.298-.149.596-.372.819-.596.224-.223.373-.521.522-.894.149-.298.149-.67.149-1.043 0-.372-.075-.67-.149-1.043-.149-.298-.298-.596-.522-.894a3.296 3.296 0 0 0-.819-.596c-.298-.15-.745-.224-1.118-.224a3.09 3.09 0 0 0-1.192.224 3.32 3.32 0 0 0-.82.596c-.223.223-.372.521-.521.894-.149.298-.149.67-.149 1.043 0 .373.074.745.149 1.043Zm5.812-2.086c.074.373.149.745.149 1.118 0 .298-.075.67-.149 1.117-.149.373-.298.82-.596 1.118-.299.373-.597.67-1.044.894a3.549 3.549 0 0 1-1.639.373c-.67 0-1.192-.15-1.639-.373-.447-.224-.82-.522-1.043-.894-.298-.373-.447-.745-.596-1.118-.075-.372-.149-.745-.149-1.117 0-.373.074-.671.149-1.118.149-.373.298-.82.596-1.118.298-.372.596-.67 1.043-.894a3.553 3.553 0 0 1 1.639-.372 3.55 3.55 0 0 1 1.639.372c.447.224.82.522 1.044.894.298.298.521.67.596 1.118ZM91.851 26.341c-20.267 0-36.808 16.467-36.808 36.734 0 20.266 16.541 36.733 36.808 36.733 20.341 0 36.808-16.467 36.808-36.733.074-20.267-16.467-36.734-36.808-36.734Zm0 74.138c-20.714 0-37.479-16.765-37.479-37.404 0-20.64 16.84-37.404 37.479-37.404 20.714 0 37.478 16.764 37.478 37.404.075 20.639-16.764 37.404-37.478 37.404ZM81.047 89.6l-.447 1.341 1.118.82h-1.416l-.447 1.341-.447-1.341h-1.416l1.118-.82-.447-1.34 1.117.819 1.267-.82Zm-5.514-2.98-.447 1.34 1.118.82h-1.416l-.447 1.342-.447-1.341h-1.416l1.118-.82-.447-1.341 1.118.82 1.266-.82Zm35.02 0-.447 1.34 1.117.82h-1.415l-.447 1.342-.447-1.341h-1.416l1.118-.82-.447-1.341 1.117.82 1.267-.82Zm-23.47 4.694-.448 1.341 1.118.82h-1.416l-.447 1.34-.447-1.34h-1.416l1.118-.82-.373-1.341 1.118.82 1.192-.82Zm6.035.447-.447 1.341 1.117.82h-1.416l-.447 1.34-.447-1.34h-1.415l1.117-.82-.447-1.341 1.118.82 1.267-.82Zm6.11-.447-.448 1.341 1.118.82h-1.416l-.447 1.34-.447-1.34h-1.416l1.118-.82-.298-1.341 1.118.82 1.117-.82Zm6.035-1.714-.447 1.341 1.117.82h-1.415l-.448 1.341-.447-1.341h-1.415l1.117-.82-.447-1.34 1.118.819 1.267-.82ZM91.925 39.604c-12.964 0-23.545 10.506-23.545 23.47 0 12.965 10.58 23.471 23.545 23.471 12.965 0 23.545-10.506 23.545-23.47 0-12.965-10.58-23.471-23.545-23.471Zm0 47.686c-13.337 0-24.215-10.878-24.215-24.215 0-13.338 10.878-24.142 24.215-24.142 13.338 0 24.216 10.879 24.216 24.142 0 13.337-10.878 24.215-24.216 24.215ZM75.012 68.96V49.589s0-.596.447-1.117c0 0 .298-.447.82-.447h3.65s2.236-.15 4.545 2.011c0 0 2.012 2.236 2.012 4.546v9.537s0 2.384-2.012 4.47c0 0-2.086 1.938-3.8 1.938 0 0-1.564-.075-1.564-1.565 0 0-.075-1.192 1.192-1.64 1.341-.446 2.906-1.713 2.906-3.427v-9.239s-.075-1.565-1.267-2.533c0 0-.969-.969-2.31-.969h-1.49v17.808s0 1.64-1.64 1.64c-1.49 0-1.49-1.64-1.49-1.64Zm13.039.15V49.44s.074-1.49 1.565-1.49c1.49 0 1.639 1.49 1.639 1.49v19.67s-.075 1.49-1.565 1.49c-1.565 0-1.64-1.49-1.64-1.49Zm17.584 0V49.44s.075-1.49 1.565-1.49 1.639 1.49 1.639 1.49v19.67s-.074 1.49-1.565 1.49c-1.564 0-1.639-1.49-1.639-1.49Zm-12.965.074V49.44s.224-1.49 1.342-1.49h3.65s2.385.075 4.397 1.788c2.011 1.714 2.086 4.396 2.086 4.396s-.075 1.863-.745 2.906c-.671 1.043-1.416 1.64-1.416 1.64s2.608 1.713 2.608 5.14c0 3.428-2.608 5.812-5.365 6.632 0 0-1.49.522-2.31-.82 0 0-.521-1.34.895-2.16 0 0 1.639-.373 2.458-1.193.82-.894 1.118-1.713 1.118-2.384 0-.67-.372-2.831-2.831-3.502 0 0-1.714-.298-1.714-1.639s1.192-1.565 1.64-1.714c.446-.074 2.533-.968 2.533-2.757 0-1.788-1.938-2.98-3.428-2.98h-1.565v17.882s-.149 1.49-1.639 1.49c-1.564-.074-1.713-1.49-1.713-1.49Z" fill="#0A0908"/></g><defs><clipPath id="a"><path fill="#fff" transform="translate(54 25)" d="M0 0h76v76H0z"/></clipPath></defs></svg>