<svg width="184" height="126" viewBox="0 0 184 126" fill="none" xmlns="http://www.w3.org/2000/svg">
<path d="M69.5296 49.2124C67.2994 49.2124 63.1848 50.2699 63.1848 63.3079C63.1848 76.358 67.2994 77.6197 69.5296 77.6197C70.5791 77.6197 71.2231 77.4034 71.2231 77.4034V75.8773C70.9011 75.9494 70.6149 75.9855 70.2571 75.9855C68.3131 75.9855 65.4627 74.2791 65.4627 63.3079C65.4627 52.553 68.2058 50.8467 70.1498 50.8467C70.5433 50.8467 70.9488 50.9548 71.2351 51.063V49.4648C71.2231 49.4768 70.5791 49.2124 69.5296 49.2124Z" fill="#0A0908"/>
<path d="M78.1523 49.3927H76.4587V77.4395H78.7009V67.5258C79.4522 68.4631 80.3944 70.0253 81.1219 71.8157C81.7659 73.45 82.1357 75.625 82.1357 77.4516H84.2228C84.2228 75.5649 83.8292 73.2337 82.887 70.9506C82.1714 69.2081 81.2293 67.7902 80.3586 66.7327C81.6944 65.7834 84.5448 63.0556 84.5448 57.6121C84.5328 50.8467 81.0623 49.3927 78.1523 49.3927ZM78.689 65.7834V51.039C80.2394 51.039 82.2549 51.9402 82.2549 57.6121C82.2549 63.4281 79.4045 65.531 78.689 65.7834Z" fill="#0A0908"/>
<path d="M97.2227 49.3927H90.1981V65.9997H89.2917V67.634H90.1981V77.4516H97.2227V75.8173H92.4284V67.634H96.1136V65.9997H92.4284V51.027H97.2227V49.3927Z" fill="#0A0908"/>
<path d="M117.235 49.3927H115.327L112.512 68.5833L109.697 49.3927H108.66L105.845 68.5833L103.031 49.3927H100.824L105.118 77.4516H106.275L109.053 59.2824L111.796 77.4516H112.941L117.235 49.3927Z" fill="#0A0908"/>
<path d="M64.294 34.576L64.5802 36.7751H64.0077L64.294 34.576ZM63.9719 33.0259L63.1848 38.2892H63.8169L63.9362 37.3519H64.6517L64.7829 38.2892H65.4508L64.6637 33.0259H63.9719Z" fill="#0A0908"/>
<path d="M73.1312 33.0259L72.1652 35.7657L71.1991 33.0259H70.8533V38.2892H71.545V35.4773L72.0101 36.8592H72.3202L72.7853 35.4773V38.2892H73.4771V33.0259H73.1312Z" fill="#0A0908"/>
<path d="M79.178 33.0259V35.982H78.9514V36.5588H79.178V38.2892H80.8954V37.7124H79.8936V36.5588H80.6807V35.982H79.8936V33.6027H80.8954V33.0259H79.178Z" fill="#0A0908"/>
<path d="M86.8943 33.0259H86.3337V38.2892H87.0493V36.6549C87.1805 36.7991 87.3475 37.0515 87.4667 37.3639C87.5741 37.6523 87.6337 37.9888 87.6337 38.2892H88.3374C88.3374 37.9287 88.2897 37.5201 88.1227 37.1115C87.9915 36.7751 87.7887 36.4867 87.6337 36.2944C87.8722 36.1262 88.3851 35.6335 88.3851 34.6121C88.3731 33.4224 87.6576 33.0259 86.8943 33.0259ZM87.0493 35.9339V33.6147C87.3713 33.6147 87.6576 33.843 87.6576 34.6241C87.6576 35.5133 87.2044 35.9099 87.0493 35.9339Z" fill="#0A0908"/>
<path d="M94.6348 33.0259H93.9192V38.2892H94.6348V33.0259Z" fill="#0A0908"/>
<path d="M101.659 32.99C101.122 32.99 100.228 33.2063 100.228 35.6457C100.228 38.085 101.122 38.3134 101.659 38.3134C101.862 38.3134 102.005 38.2653 102.005 38.2653V37.7005C101.933 37.7125 101.862 37.7245 101.778 37.7245C101.456 37.7245 100.944 37.4962 100.944 35.6337C100.944 33.7831 101.456 33.5548 101.767 33.5548C101.862 33.5548 101.933 33.5788 102.005 33.5908V33.026C102.005 33.0381 101.85 32.99 101.659 32.99Z" fill="#0A0908"/>
<path d="M108.469 34.576L108.755 36.7751H108.183L108.469 34.576ZM108.147 33.0259L107.36 38.2892H107.992L108.111 37.3519H108.827L108.958 38.2892H109.626L108.839 33.0259H108.147Z" fill="#0A0908"/>
<path d="M116.543 33.0259V36.0421L115.387 33.0259H115.041V38.2892H115.732V35.285L116.901 38.2892H117.247V33.0259H116.543Z" fill="#0A0908"/>
<path d="M64.9022 88.4586C64.449 88.4586 64.0315 88.6148 63.7215 88.8792C63.3637 89.2036 63.1729 89.6843 63.1729 90.2611C63.1729 90.7898 63.3398 91.2465 63.638 91.5709C63.9481 91.8954 64.3774 92.0756 64.8783 92.0756C65.9278 92.0756 66.6076 91.3546 66.6076 90.2251C66.6076 89.6963 66.4407 89.2397 66.1067 88.9152C65.8205 88.6268 65.3792 88.4586 64.9022 88.4586ZM64.9022 91.7031C64.5086 91.7031 64.1747 91.5469 63.9719 91.2585C63.793 91.0061 63.6857 90.6577 63.6857 90.2731C63.6857 89.8646 63.7811 89.5161 63.9719 89.2757C64.1866 88.9873 64.4967 88.8552 64.9022 88.8552C65.2719 88.8552 65.582 88.9874 65.7966 89.2397C65.9994 89.48 66.1067 89.8285 66.1067 90.2371C66.1067 90.5255 66.059 91.0422 65.7251 91.3907C65.5223 91.595 65.248 91.7031 64.9022 91.7031Z" fill="#0A0908"/>
<path d="M68.0986 88.5669C67.5142 88.5669 67.5022 89.0235 67.5022 89.2278V89.6844H67.1206V90.0209H67.5022V91.9916H67.8958V90.0209H68.3252V89.6844H67.8958V89.2999C67.8958 89.1317 67.8958 88.9034 68.1701 88.9034C68.2178 88.9034 68.2894 88.9154 68.3848 88.9274H68.3967V88.615H68.3848L68.3371 88.603C68.2536 88.5789 68.182 88.5669 68.0986 88.5669Z" fill="#0A0908"/>
<path d="M69.6728 88.5669C69.0884 88.5669 69.0765 89.0235 69.0765 89.2278V89.6844H68.6948V90.0209H69.0765V91.9916H69.47V90.0209H69.8994V89.6844H69.4581V89.2999C69.4581 89.1317 69.4581 88.9034 69.7324 88.9034C69.7682 88.9034 69.8397 88.9154 69.9471 88.9274H69.959V88.615H69.9471L69.8875 88.603C69.8397 88.5789 69.7563 88.5669 69.6728 88.5669Z" fill="#0A0908"/>
<path d="M70.8298 89.6843H70.4363V91.9915H70.8298V89.6843Z" fill="#0A0908"/>
<path d="M70.8298 88.5431H70.4363V89.0117H70.8298V88.5431Z" fill="#0A0908"/>
<path d="M72.5589 89.6124C72.2011 89.6124 71.9149 89.7446 71.724 89.997C71.5571 90.2133 71.4617 90.5257 71.4617 90.8622C71.4617 91.1746 71.5571 91.463 71.7121 91.6673C71.9149 91.9196 72.213 92.0518 72.5947 92.0518C73.0359 92.0518 73.346 91.8836 73.5249 91.5471C73.6084 91.3789 73.6442 91.2587 73.6561 91.1626V91.1506L73.2268 91.1145V91.1265C73.2029 91.2948 73.1433 91.7514 72.5947 91.7514C72.3561 91.7514 72.1653 91.6432 72.0341 91.451C71.9387 91.3068 71.891 91.0905 71.891 90.8381C71.891 90.5617 71.9626 89.9249 72.5708 89.9249C73.0479 89.9249 73.1433 90.2854 73.1671 90.4416V90.4536L73.5965 90.4175H73.6084V90.4055C73.4534 89.6845 72.8213 89.6124 72.5589 89.6124Z" fill="#0A0908"/>
<path d="M74.646 89.6843H74.2524V91.9915H74.646V89.6843Z" fill="#0A0908"/>
<path d="M74.646 88.5431H74.2524V89.0117H74.646V88.5431Z" fill="#0A0908"/>
<path d="M76.2204 89.6124C75.8506 89.6124 75.5763 89.7566 75.4332 90.021C75.3617 90.1532 75.3497 90.2613 75.3378 90.3454V90.3815L75.7552 90.4055H75.7672V90.3935C75.7672 90.2733 75.7672 89.9249 76.2442 89.9249C76.7451 89.9249 76.7451 90.3214 76.7451 90.5497V90.5978L76.3992 90.6218C75.6717 90.6819 75.4571 90.8622 75.3378 91.0304C75.2782 91.1265 75.2305 91.2467 75.2305 91.3789C75.2305 91.7634 75.5644 92.0398 76.0176 92.0398C76.435 92.0398 76.6736 91.7995 76.7928 91.6793C76.8286 91.8956 76.9598 92.0037 77.1983 92.0037C77.2937 92.0037 77.3533 91.9917 77.413 91.9797L77.4488 91.9677H77.4607V91.6072H77.4488C77.413 91.6192 77.3653 91.6312 77.3295 91.6312C77.1864 91.6312 77.1864 91.5351 77.1745 91.3188V90.5617C77.1745 90.2733 77.1864 89.997 76.924 89.7807C76.7093 89.6605 76.4231 89.6124 76.2204 89.6124ZM76.0892 91.7153C75.7791 91.7153 75.6717 91.5351 75.6717 91.3789C75.6717 91.2347 75.7314 91.0664 76.1607 90.9703C76.3635 90.9222 76.5424 90.8982 76.6736 90.8742L76.7451 90.8622C76.7451 91.1866 76.7451 91.2347 76.6855 91.3669C76.5781 91.5952 76.3635 91.7153 76.0892 91.7153Z" fill="#0A0908"/>
<path d="M78.3555 88.5431H77.9619V91.9919H78.3555V88.5431Z" fill="#0A0908"/>
<path d="M82.3382 88.4586C82.1951 88.4586 81.7658 88.4586 81.4199 88.747C81.2768 88.8672 81.1098 89.0835 81.1098 89.4199C81.1098 90.153 81.8731 90.3092 82.3263 90.4053L82.6126 90.4654C82.9226 90.5255 83.2566 90.6336 83.2566 91.0302C83.2566 91.4387 82.9226 91.7031 82.4217 91.7031C82.1355 91.7031 81.897 91.631 81.73 91.4748C81.4796 91.2465 81.4676 90.9461 81.4557 90.8259V90.8139L80.9548 90.874H80.9429V90.886C80.9786 91.3666 81.1933 91.7151 81.5869 91.9074C81.8135 92.0155 82.0878 92.0756 82.3979 92.0756C82.7795 92.0756 83.0896 91.9915 83.3281 91.8233C83.6144 91.631 83.7694 91.3426 83.7694 90.9821C83.7694 90.7538 83.6978 90.3332 83.1731 90.1169C83.0538 90.0688 82.9346 90.0328 82.7318 89.9847C82.696 89.9727 82.6722 89.9727 82.6364 89.9607L82.2548 89.8646C81.9566 89.7925 81.5988 89.7083 81.5988 89.3358C81.5988 89.0955 81.8016 88.8071 82.3621 88.8071C82.6126 88.8071 82.8153 88.8552 82.9584 88.9753C83.2089 89.1676 83.2208 89.432 83.2327 89.5401V89.5521L83.7098 89.5161V89.5041C83.674 89.3238 83.6144 88.9513 83.2685 88.699C82.9584 88.4827 82.5887 88.4586 82.3382 88.4586Z" fill="#0A0908"/>
<path d="M86.3335 89.6846H85.928V90.8382C85.928 91.1145 85.928 91.2828 85.7849 91.451C85.6776 91.5832 85.4987 91.6673 85.284 91.6673C85.1409 91.6673 84.8785 91.6192 84.8427 91.3188C84.8308 91.2587 84.8308 91.2467 84.8308 91.0064V89.6846H84.4253V91.0304C84.4253 91.415 84.4253 91.6192 84.5923 91.8115C84.6877 91.9197 84.8546 92.0518 85.1528 92.0518C85.5941 92.0518 85.8326 91.7875 85.9161 91.6673V92.0038H86.3216V89.6846H86.3335Z" fill="#0A0908"/>
<path d="M88.2895 89.6123C88.0867 89.6123 87.8482 89.6844 87.6812 89.8046C87.6097 89.8647 87.562 89.9127 87.5023 89.9728L87.4785 89.9968V89.6844H87.073V93.0731H87.4785V91.7393C87.6574 91.9556 87.9198 92.0637 88.2298 92.0637C88.8858 92.0637 89.3032 91.583 89.3032 90.85C89.3032 90.4655 89.184 90.1531 88.9693 89.9247C88.8023 89.7205 88.5519 89.6123 88.2895 89.6123ZM88.1821 91.7032C87.7409 91.7032 87.4904 91.3908 87.4904 90.8741C87.4904 90.3453 87.7528 90.0089 88.1821 89.9968H88.2179C88.6353 89.9968 88.9096 90.3213 88.9096 90.838C88.9096 91.3427 88.6592 91.547 88.5876 91.5951C88.4803 91.6671 88.3491 91.7032 88.1821 91.7032Z" fill="#0A0908"/>
<path d="M91.1399 89.6123C90.9371 89.6123 90.6986 89.6844 90.5435 89.8046C90.472 89.8647 90.4243 89.9127 90.3646 89.9728L90.3408 89.9968V89.6844H89.9353V93.0731H90.3408V91.7393C90.5197 91.9556 90.7821 92.0637 91.0922 92.0637C91.7481 92.0637 92.1655 91.583 92.1655 90.85C92.1655 90.4655 92.0463 90.1531 91.8316 89.9247C91.6527 89.7205 91.4022 89.6123 91.1399 89.6123ZM91.0444 91.7032C90.6032 91.7032 90.3527 91.3908 90.3527 90.8741C90.3527 90.3453 90.6151 90.0089 91.0444 89.9968H91.0802C91.4976 89.9968 91.772 90.3213 91.772 90.838C91.772 91.3427 91.5215 91.547 91.4499 91.5951C91.3307 91.6671 91.1995 91.7032 91.0444 91.7032Z" fill="#0A0908"/>
<path d="M93.2034 88.5428H92.8098V91.9916H93.2034V88.5428Z" fill="#0A0908"/>
<path d="M94.3484 89.6844H93.9548V91.9916H94.3484V89.6844Z" fill="#0A0908"/>
<path d="M94.3484 88.5428H93.9548V89.0115H94.3484V88.5428Z" fill="#0A0908"/>
<path d="M96.0657 89.6121C95.7914 89.6121 95.529 89.7082 95.3263 89.8884C95.0877 90.1047 94.9565 90.4292 94.9565 90.8137C94.9565 91.5828 95.3859 92.0514 96.0776 92.0514C96.5904 92.0514 96.9363 91.7871 97.1152 91.2824V91.2583L96.7097 91.2103H96.6978V91.2223C96.6024 91.6789 96.2804 91.751 96.1015 91.751C95.8987 91.751 95.7318 91.6789 95.6125 91.5588C95.4694 91.4025 95.374 91.1622 95.3859 90.9219H97.1033V90.8978C97.1033 90.8017 97.1033 90.6335 97.0675 90.4292C96.9363 89.8284 96.4593 89.6121 96.0657 89.6121ZM95.4097 90.6094C95.4574 90.1889 95.696 89.9245 96.0418 89.9245C96.6024 89.9245 96.6739 90.5013 96.6859 90.6094H95.4097Z" fill="#0A0908"/>
<path d="M98.928 89.6606H98.9161C98.761 89.6606 98.3675 89.6847 98.1528 90.0812V89.6967H97.7473V92.0039H98.1528V90.8984C98.1528 90.7061 98.1528 90.5138 98.2482 90.3576C98.3556 90.1894 98.5344 90.0932 98.761 90.0932C98.8207 90.0932 98.8684 90.0932 98.9161 90.1053H98.928V89.6606V89.6606Z" fill="#0A0908"/>
<path d="M101.922 88.9633H101.504V89.6843H101.146V90.0207H101.504V91.4988C101.504 91.679 101.504 91.8232 101.6 91.9193C101.671 91.9914 101.779 92.0275 101.957 92.0275C102.077 92.0275 102.208 92.0035 102.291 91.9914H102.327H102.339V91.655H102.327C102.256 91.679 102.148 91.7151 102.077 91.7151C101.922 91.7151 101.922 91.6069 101.922 91.3305V90.0327H102.339V89.6963H101.922V88.9633Z" fill="#0A0908"/>
<path d="M103.853 89.6121C103.46 89.6121 103.15 89.7563 102.947 90.0447C102.792 90.261 102.708 90.5494 102.708 90.8618C102.708 91.4146 103.007 92.0635 103.841 92.0635C104.509 92.0635 104.951 91.5708 104.963 90.8378C104.963 90.4652 104.843 90.1288 104.629 89.9125C104.438 89.7202 104.175 89.6121 103.853 89.6121ZM103.841 91.727C103.4 91.727 103.162 91.4146 103.162 90.8618C103.162 90.0687 103.603 89.9485 103.877 89.9485C104.068 89.9485 104.414 90.0206 104.509 90.5253C104.521 90.5854 104.533 90.6936 104.533 90.8498C104.509 91.6068 104.092 91.727 103.841 91.727Z" fill="#0A0908"/>
<path d="M110.866 88.5428H110.27L109.22 91.3427L108.183 88.5549V88.5428H107.586V91.9916H108.052L108.004 89.2038L109.03 91.9796L109.041 91.9916H109.399L110.461 89.1677L110.401 91.9796V91.9916H110.866V88.5428Z" fill="#0A0908"/>
<path d="M112.667 89.6121C112.393 89.6121 112.13 89.7082 111.928 89.8884C111.689 90.1047 111.558 90.4292 111.558 90.8137C111.558 91.5828 111.987 92.0514 112.679 92.0514C113.192 92.0514 113.538 91.7871 113.717 91.2824L113.728 91.2583L113.323 91.2103H113.311V91.2223C113.204 91.6789 112.894 91.751 112.715 91.751C112.512 91.751 112.345 91.6789 112.226 91.5588C112.083 91.4025 111.987 91.1622 111.999 90.9219H113.728V90.8978C113.728 90.8017 113.728 90.6335 113.681 90.4292C113.526 89.8284 113.061 89.6121 112.667 89.6121ZM111.999 90.6094C112.047 90.1889 112.285 89.9245 112.631 89.9245C113.192 89.9245 113.263 90.5013 113.275 90.6094H111.999Z" fill="#0A0908"/>
<path d="M115.446 89.6121C115.303 89.6121 114.957 89.6481 114.754 89.9966V89.6842H114.349V91.9914H114.754V90.6815C114.754 90.5133 114.754 90.3451 114.921 90.1768C115.04 90.0567 115.172 90.0086 115.35 90.0086C115.529 90.0086 115.756 90.0927 115.827 90.321C115.851 90.3931 115.851 90.4652 115.851 90.6936V92.0034H116.257V90.6335C116.257 90.4412 116.257 90.297 116.221 90.1528C116.09 89.7563 115.72 89.6121 115.446 89.6121Z" fill="#0A0908"/>
<path d="M117.247 43.6243H63.1729V44.0569H117.247V43.6243Z" fill="#0A0908"/>
<path d="M117.247 82.7864H63.1729V83.219H117.247V82.7864Z" fill="#0A0908"/>
<path d="M115.041 86.5599V86.8123H115.685V88.5427H116.031V86.8123H116.663V86.5599H115.041ZM118.738 86.5599L118.189 88.062L117.605 86.5599H117.128V88.5427H117.426V86.8363L118.094 88.5427H118.285L118.917 86.8363V88.5427H119.215V86.5599H118.738Z" fill="#0A0908"/>
<path d="M117.283 74.7479C116.818 74.7479 116.4 74.9282 116.078 75.2406C115.744 75.5771 115.553 76.0217 115.553 76.4783C115.553 76.935 115.732 77.3676 116.054 77.692C116.388 78.0285 116.818 78.2087 117.271 78.2087C117.724 78.2087 118.153 78.0285 118.499 77.692C118.821 77.3676 119 76.947 119 76.4783C119 76.0097 118.821 75.5771 118.511 75.2526C118.177 74.9282 117.76 74.7479 117.283 74.7479ZM117.283 78.0044C116.889 78.0044 116.508 77.8482 116.221 77.5598C115.935 77.2714 115.78 76.8869 115.78 76.4903C115.78 76.0818 115.935 75.6972 116.233 75.3968C116.508 75.1084 116.877 74.9642 117.295 74.9642C117.712 74.9642 118.082 75.1204 118.38 75.4088C118.666 75.6972 118.821 76.0818 118.821 76.5024C118.821 76.9109 118.666 77.2834 118.38 77.5718C118.07 77.8482 117.688 78.0044 117.283 78.0044ZM117.33 75.4689H116.603V77.4517H116.937V76.5865H117.354L117.772 77.4517H118.141L117.7 76.5384C117.986 76.4903 118.165 76.2861 118.165 76.0097C118.153 75.6372 117.879 75.4689 117.33 75.4689ZM116.937 76.3702V75.6852H117.271C117.641 75.6852 117.819 75.7814 117.819 76.0337C117.819 76.2861 117.652 76.3702 117.283 76.3702H116.937Z" fill="#0A0908"/>
</svg>
