<svg width="184" height="126" viewBox="0 0 184 126" fill="none" xmlns="http://www.w3.org/2000/svg">
<g clip-path="url(#clip0_1222_569)">
<path d="M78.8862 76.9334L81.792 71.3452H82.6862V77.9765H81.9411V72.8354L79.2587 77.9765H78.6626L75.9803 72.8354V77.9765H75.2352V71.3452H76.1293L78.8862 76.9334V76.9334ZM83.2822 78.051V71.4197H84.0273V78.051H83.2822ZM100.792 76.7844V71.3452H101.537V77.9765H100.792L96.4705 72.6118V78.051H94.8313L93.9371 76.0393H90.8077L89.9136 78.051H84.7724V71.4197H85.5175V77.3805H89.3175L91.9999 71.4197H92.6705L95.6509 78.051V71.4197H96.396L100.792 76.7844V76.7844ZM91.0313 75.2942H93.5646L92.2979 72.4628L91.0313 75.2942V75.2942ZM102.953 75.7412C103.102 76.0393 103.251 76.3373 103.474 76.6354C103.698 76.8589 103.996 77.0824 104.294 77.2314C104.592 77.3805 105.039 77.455 105.486 77.455C105.933 77.455 106.306 77.3805 106.604 77.2314C106.902 77.0824 107.2 76.8589 107.423 76.6354C107.647 76.4118 107.796 76.1138 107.945 75.7412C108.094 75.4432 108.094 75.0707 108.094 74.6981C108.094 74.3256 108.019 74.0275 107.945 73.655C107.796 73.3569 107.647 73.0589 107.423 72.7608C107.2 72.5373 106.902 72.3138 106.604 72.1648C106.306 72.0158 105.859 71.9412 105.486 71.9412C105.039 71.9412 104.667 72.0158 104.294 72.1648C103.996 72.3138 103.698 72.5373 103.474 72.7608C103.251 72.9844 103.102 73.2824 102.953 73.655C102.804 73.953 102.804 74.3256 102.804 74.6981C102.804 75.0707 102.878 75.4432 102.953 75.7412ZM108.765 73.655C108.839 74.0275 108.914 74.4001 108.914 74.7726C108.914 75.0707 108.839 75.4432 108.765 75.8903C108.616 76.2628 108.467 76.7099 108.169 77.0079C107.87 77.3805 107.572 77.6785 107.125 77.902C106.678 78.1256 106.157 78.2746 105.486 78.2746C104.816 78.2746 104.294 78.1256 103.847 77.902C103.4 77.6785 103.027 77.3805 102.804 77.0079C102.506 76.6354 102.357 76.2628 102.208 75.8903C102.133 75.5177 102.059 75.1452 102.059 74.7726C102.059 74.4001 102.133 74.102 102.208 73.655C102.357 73.2824 102.506 72.8354 102.804 72.5373C103.102 72.1648 103.4 71.8667 103.847 71.6432C104.294 71.4197 104.816 71.2707 105.486 71.2707C106.157 71.2707 106.678 71.4197 107.125 71.6432C107.572 71.8667 107.945 72.1648 108.169 72.5373C108.467 72.8354 108.69 73.2079 108.765 73.655ZM91.8509 26.3412C71.5842 26.3412 55.043 42.8079 55.043 63.0746C55.043 83.3412 71.5842 99.8079 91.8509 99.8079C112.192 99.8079 128.659 83.3412 128.659 63.0746C128.733 42.8079 112.192 26.3412 91.8509 26.3412V26.3412ZM91.8509 100.479C71.1371 100.479 54.3724 83.7138 54.3724 63.0746C54.3724 42.4354 71.2117 25.6707 91.8509 25.6707C112.565 25.6707 129.329 42.4354 129.329 63.0746C129.404 83.7138 112.565 100.479 91.8509 100.479V100.479ZM81.0469 89.6001L80.5999 90.9412L81.7175 91.7608H80.3018L79.8548 93.102L79.4077 91.7608H77.992L79.1097 90.9412L78.6626 89.6001L79.7803 90.4197L81.0469 89.6001ZM75.5332 86.6197L75.0862 87.9609L76.2038 88.7805H74.7881L74.3411 90.1216L73.894 88.7805H72.4783L73.596 87.9609L73.1489 86.6197L74.2666 87.4393L75.5332 86.6197V86.6197ZM110.553 86.6197L110.106 87.9609L111.223 88.7805H109.808L109.361 90.1216L108.914 88.7805H107.498L108.616 87.9609L108.169 86.6197L109.286 87.4393L110.553 86.6197V86.6197ZM87.0822 91.3138L86.6352 92.655L87.7528 93.4746H86.3371L85.8901 94.8158L85.443 93.4746H84.0273L85.145 92.655L84.7724 91.3138L85.8901 92.1334L87.0822 91.3138ZM93.1175 91.7608L92.6705 93.102L93.7881 93.9216H92.3724L91.9254 95.2628L91.4783 93.9216H90.0626L91.1803 93.102L90.7332 91.7608L91.8509 92.5805L93.1175 91.7608ZM99.2273 91.3138L98.7803 92.655L99.8979 93.4746H98.4822L98.0352 94.8158L97.5881 93.4746H96.1724L97.2901 92.655L96.992 91.3138L98.1097 92.1334L99.2273 91.3138ZM105.263 89.6001L104.816 90.9412L105.933 91.7608H104.518L104.07 93.102L103.623 91.7608H102.208L103.325 90.9412L102.878 89.6001L103.996 90.4197L105.263 89.6001V89.6001ZM91.9254 39.604C78.9607 39.604 68.3803 50.1099 68.3803 63.0746C68.3803 76.0393 78.9607 86.5452 91.9254 86.5452C104.89 86.5452 115.47 76.0393 115.47 63.0746C115.47 50.1099 104.89 39.604 91.9254 39.604ZM91.9254 87.2903C78.5881 87.2903 67.7097 76.4118 67.7097 63.0746C67.7097 49.7373 78.5881 38.9334 91.9254 38.9334C105.263 38.9334 116.141 49.8118 116.141 63.0746C116.141 76.4118 105.263 87.2903 91.9254 87.2903V87.2903ZM75.0117 68.9609V49.5883C75.0117 49.5883 75.0117 48.9922 75.4587 48.4707C75.4587 48.4707 75.7568 48.0236 76.2783 48.0236H79.9293C79.9293 48.0236 82.1646 47.8746 84.4744 50.0354C84.4744 50.0354 86.4862 52.2707 86.4862 54.5805V64.1177C86.4862 64.1177 86.4862 66.502 84.4744 68.5883C84.4744 68.5883 82.3881 70.5256 80.6744 70.5256C80.6744 70.5256 79.1097 70.451 79.1097 68.9609C79.1097 68.9609 79.0352 67.7687 80.3018 67.3216C81.643 66.8746 83.2077 65.6079 83.2077 63.8942V54.655C83.2077 54.655 83.1332 53.0903 81.9411 52.1216C81.9411 52.1216 80.9724 51.153 79.6313 51.153H78.1411V68.9609C78.1411 68.9609 78.1411 70.6001 76.5018 70.6001C75.0117 70.6001 75.0117 68.9609 75.0117 68.9609ZM88.0509 69.1099V49.4393C88.0509 49.4393 88.1254 47.9491 89.6156 47.9491C91.1058 47.9491 91.2548 49.4393 91.2548 49.4393V69.1099C91.2548 69.1099 91.1803 70.6001 89.6901 70.6001C88.1254 70.6001 88.0509 69.1099 88.0509 69.1099V69.1099ZM105.635 69.1099V49.4393C105.635 49.4393 105.71 47.9491 107.2 47.9491C108.69 47.9491 108.839 49.4393 108.839 49.4393V69.1099C108.839 69.1099 108.765 70.6001 107.274 70.6001C105.71 70.6001 105.635 69.1099 105.635 69.1099V69.1099ZM92.6705 69.1844V49.4393C92.6705 49.4393 92.894 47.9491 94.0117 47.9491H97.6626C97.6626 47.9491 100.047 48.0236 102.059 49.7373C104.07 51.451 104.145 54.1334 104.145 54.1334C104.145 54.1334 104.07 55.9961 103.4 57.0393C102.729 58.0824 101.984 58.6785 101.984 58.6785C101.984 58.6785 104.592 60.3922 104.592 63.8197C104.592 67.2471 101.984 69.6314 99.2273 70.451C99.2273 70.451 97.7371 70.9726 96.9175 69.6314C96.9175 69.6314 96.396 68.2903 97.8117 67.4707C97.8117 67.4707 99.4509 67.0981 100.27 66.2785C101.09 65.3844 101.388 64.5648 101.388 63.8942C101.388 63.2236 101.016 61.0628 98.5568 60.3922C98.5568 60.3922 96.843 60.0942 96.843 58.753C96.843 57.4118 98.0352 57.1883 98.4822 57.0393C98.9293 56.9648 101.016 56.0707 101.016 54.2824C101.016 52.4942 99.0783 51.302 97.5881 51.302H96.0234V69.1844C96.0234 69.1844 95.8744 70.6746 94.3842 70.6746C92.8195 70.6001 92.6705 69.1844 92.6705 69.1844V69.1844Z" fill="#0A0908"/>
</g>
<defs>
<clipPath id="clip0_1222_569">
<rect width="76" height="76" fill="white" transform="translate(54 25)"/>
</clipPath>
</defs>
</svg>
