<svg width="184" height="126" viewBox="0 0 184 126" fill="none" xmlns="http://www.w3.org/2000/svg">
<g clip-path="url(#clip0_1222_487)">
<path d="M82.9913 63.711L74.8916 47.453H71.4287L81.4653 67.5261H82.3457L91.9127 47.453H90.5627L82.9913 63.711Z" fill="#0A0908"/>
<path d="M56.2268 57.8417H64.4439V56.7265H56.3442V48.5095H68.1415C68.0242 48.1573 67.7894 47.8052 67.672 47.453H53.0574V67.5848H68.3176C68.4937 67.2326 68.7285 66.8218 68.9633 66.4696H56.2268V57.8417Z" fill="#0A0908"/>
<path d="M32.339 57.3135V48.5095H39.6756C41.9647 48.3921 43.9015 50.1529 44.0189 52.3832V52.7354C44.0189 55.2005 42.0234 57.2548 39.5582 57.2548L32.339 57.3135V57.3135ZM47.071 52.7941C47.071 49.4486 43.432 47.453 40.7908 47.453H29.1108V67.5848H32.339V58.37H38.1496L45.6623 67.5261H49.6535L41.5538 58.1352C44.8993 57.7243 47.071 55.5527 47.071 52.7941" fill="#0A0908"/>
<path d="M119.087 46.573C118.383 46.5143 117.679 46.5143 116.974 46.573C110.988 47.1012 105.999 51.738 105.999 56.9617C105.999 60.8354 108.581 64.6505 113.864 65.4135C110.283 62.7723 109.52 59.8963 109.52 57.079C109.52 53.0879 112.279 47.8055 118.031 47.7468C123.372 47.6881 126.483 52.501 126.483 57.0204C126.483 59.8963 125.544 63.8288 121.376 65.707C120.32 66.1765 119.146 66.4113 117.972 66.4113H98.4274V47.3947H95.3167V67.5851H119.205C125.544 67.5851 130.004 62.068 130.004 56.903C130.004 51.738 125.192 47.1012 119.087 46.573Z" fill="#0A0908"/>
<path d="M149.49 62.1263L136.167 47.453H133.526V67.5261H134.817V50.7398L150.253 67.5261H150.782V47.453H149.49V62.1263Z" fill="#0A0908"/>
<path d="M31.576 75.9784H30.2847V73.748H31.576C32.6324 73.748 33.0433 74.1002 33.0433 74.8632C33.0433 75.6262 32.5737 75.9784 31.576 75.9784ZM31.576 72.6915H29.1108V79.6173H30.2847V77.0348H31.4586C32.8672 77.0348 34.1585 76.5653 34.1585 74.8632C34.1585 73.1611 32.9846 72.6915 31.576 72.6915" fill="#0A0908"/>
<path d="M41.0253 75.861V73.748H42.2579C43.2557 73.748 43.7252 73.9241 43.7252 74.8045C43.7252 75.6849 43.2557 75.861 42.2579 75.861H41.0253V75.861ZM44.9578 74.8045C44.9578 73.3958 43.96 72.6915 42.3753 72.6915H39.9102V79.5586H41.0253V76.8588H42.1992L43.7252 79.5586H44.9578L43.3731 76.6827C44.3122 76.5653 45.0165 75.7436 44.9578 74.8045" fill="#0A0908"/>
<path d="M53.6442 78.6777C52.4703 78.6777 51.7073 77.7973 51.7073 76.1539C51.7073 74.5105 52.4703 73.6301 53.6442 73.6301C54.8181 73.6301 55.5811 74.5105 55.5811 76.1539C55.5811 77.7973 54.7594 78.6777 53.6442 78.6777ZM53.6442 72.5736C51.8834 72.5736 50.5334 73.8062 50.5334 76.0952C50.5334 78.3842 51.9421 79.6755 53.6442 79.6755C55.3463 79.6755 56.7549 78.4429 56.7549 76.0952C56.7549 73.7475 55.405 72.5736 53.6442 72.5736Z" fill="#0A0908"/>
<path d="M62.5659 72.6915V79.6173H63.7398V76.6827H66.0288V75.6262H63.7398V73.8067H66.8505V72.6915H62.5659ZM72.5438 72.6915V79.6173H77.1805V78.5609H73.7176V76.5066H76.0654V75.5088H73.7176V73.8067H77.0045V72.6915H72.5438Z" fill="#0A0908"/>
<path d="M85.3973 75.6257C84.2821 75.2735 83.8125 75.0388 83.8125 74.4518C83.8125 73.9823 84.2234 73.6888 84.9864 73.6888C85.6907 73.6888 86.3951 74.041 86.7472 74.6866L87.5689 74.0997C87.0994 73.1019 86.0429 72.5737 84.9864 72.6323C83.5778 72.6323 82.6387 73.3954 82.6387 74.5692C82.6387 75.9192 83.6952 76.2126 84.9864 76.6822C86.1016 77.0343 86.5124 77.3278 86.5124 77.856C86.5124 78.3843 85.9255 78.7364 85.1038 78.7364C84.2821 78.7364 83.5778 78.2669 83.2256 77.5626L82.3452 78.0321C82.8148 79.1473 83.9299 79.8516 85.1625 79.7929C86.8059 79.7929 87.745 78.9125 87.745 77.7387C87.8037 76.3887 86.7472 75.9779 85.3973 75.6257" fill="#0A0908"/>
<path d="M96.197 75.6262C95.0818 75.274 94.6123 75.0392 94.6123 74.4523C94.6123 73.9828 95.0231 73.6893 95.7861 73.6893C96.4904 73.6893 97.1948 74.0415 97.5469 74.6871L98.3686 74.1001C97.8991 73.1611 96.8426 72.5741 95.7861 72.6328C94.3775 72.6328 93.4384 73.3958 93.4384 74.5697C93.4384 75.9196 94.4949 76.2131 95.7861 76.6827C96.9013 77.0348 97.3121 77.3283 97.3121 77.8565C97.3121 78.3848 96.7839 78.7369 95.9035 78.7369C95.0818 78.7369 94.3775 78.2674 94.0253 77.5631L93.2036 77.9739C93.6732 79.0891 94.7883 79.7934 96.0209 79.7347C97.6643 79.7347 98.6034 78.8543 98.6034 77.6804C98.6034 76.3892 97.5469 75.9196 96.197 75.6262" fill="#0A0908"/>
<path d="M104.531 72.6915H105.705V79.6173H104.531V72.6915Z" fill="#0A0908"/>
<path d="M114.685 78.6777C113.512 78.6777 112.749 77.7973 112.749 76.1539C112.749 74.5105 113.512 73.6301 114.685 73.6301C115.859 73.6301 116.622 74.5105 116.622 76.1539C116.622 77.7973 115.859 78.6777 114.685 78.6777ZM114.685 72.5736C112.925 72.5736 111.575 73.8062 111.575 76.0952C111.575 78.3842 112.983 79.6755 114.685 79.6755C116.388 79.6755 117.796 78.4429 117.796 76.0952C117.796 73.7475 116.446 72.5736 114.685 72.5736Z" fill="#0A0908"/>
<path d="M128.126 72.6915V77.5631H128.068L124.839 72.6915H123.666V79.6173H124.722V74.5697L128.126 79.6173H129.183V72.6915H128.126ZM137.752 74.1589L138.75 76.9761H136.813L137.752 74.1589V74.1589ZM137.282 72.6915L134.817 79.6173H135.932L136.519 78.0326H139.161L139.747 79.6173H140.921L138.515 72.6915H137.282V72.6915ZM146.439 72.6915V79.6173H150.782V78.5609H147.671V72.6915H146.439Z" fill="#0A0908"/>
<path d="M154.69 74.3003C154.69 74.8687 154.488 75.3545 154.085 75.7578C153.684 76.1595 153.198 76.3604 152.63 76.3604C152.062 76.3604 151.576 76.1595 151.173 75.7578C150.771 75.3545 150.57 74.8687 150.57 74.3003C150.57 73.7319 150.771 73.2469 151.173 72.8452C151.576 72.4419 152.062 72.2403 152.63 72.2403C153.198 72.2403 153.684 72.4419 154.085 72.8452C154.488 73.2469 154.69 73.7319 154.69 74.3003ZM154.235 74.3003C154.235 73.8573 154.078 73.4771 153.764 73.1596C153.451 72.842 153.073 72.6832 152.63 72.6832C152.187 72.6832 151.808 72.842 151.494 73.1596C151.181 73.4771 151.025 73.8573 151.025 74.3003C151.025 74.7433 151.181 75.1235 151.494 75.4411C151.808 75.7586 152.187 75.9174 152.63 75.9174C153.073 75.9174 153.451 75.7586 153.764 75.4411C154.078 75.1235 154.235 74.7433 154.235 74.3003ZM153.745 75.2767H153.123L152.525 74.5242H152.33V75.2767H151.844V73.2262H152.592C152.73 73.2262 152.841 73.2318 152.925 73.2429C153.01 73.254 153.093 73.2826 153.175 73.3286C153.268 73.3826 153.334 73.4461 153.376 73.5192C153.417 73.5922 153.437 73.6851 153.437 73.7978C153.437 73.9502 153.396 74.0741 153.314 74.1693C153.233 74.2646 153.128 74.3392 152.999 74.3932L153.745 75.2767ZM152.897 73.8359C152.897 73.793 152.888 73.7541 152.871 73.7192C152.853 73.6827 152.824 73.6533 152.783 73.6311C152.746 73.6105 152.705 73.597 152.659 73.5906C152.613 73.5843 152.554 73.5811 152.482 73.5811H152.33V74.1598H152.447C152.52 74.1598 152.587 74.1542 152.649 74.1431C152.711 74.1304 152.759 74.1098 152.794 74.0812C152.829 74.0558 152.855 74.0233 152.871 73.9836C152.888 73.9439 152.897 73.8947 152.897 73.8359Z" fill="#0A0908"/>
</g>
<defs>
<clipPath id="clip0_1222_487">
<rect width="126" height="32.972" fill="white" transform="translate(29 46.5142)"/>
</clipPath>
</defs>
</svg>
