<svg width="184" height="126" viewBox="0 0 184 126" fill="none" xmlns="http://www.w3.org/2000/svg">
<g clip-path="url(#clip0_1222_565)">
<path fill-rule="evenodd" clip-rule="evenodd" d="M39.2777 67.9476C36.8165 66.2221 35.1383 63.5849 34.6124 60.6164C34.0866 57.6478 34.756 54.5908 36.4736 52.1182C38.1912 49.6455 40.8161 47.9595 43.771 47.4312C46.726 46.9029 49.7687 47.5755 52.23 49.301L54.6077 45.859C52.3297 44.3419 49.6558 43.5362 46.9227 43.5433C39.3279 43.5433 33.1729 49.621 33.1729 57.12C33.1757 59.3239 33.7161 61.4935 34.7467 63.439C35.7773 65.3846 37.2667 67.0468 39.0847 68.2802C39.3806 68.4869 39.9525 68.8144 40.0503 68.7161C40.1481 68.6179 39.5787 68.1643 39.2777 67.9602V67.9476ZM50.3815 63.8781V59.7507H61.4275C60.9886 67.8544 54.1237 74.2924 45.7262 74.2924C37.0831 74.2924 30.0702 67.4789 30 59.0477V58.9216C30 58.7528 30.0752 58.39 30.2257 58.39C30.3762 58.39 30.3762 58.8133 30.3762 58.9871C30.6847 66.9598 37.9284 72.9797 45.3626 72.9797C51.1765 72.9797 55.4178 69.2957 57.0883 63.8781H50.3815ZM54.7559 77.7928C54.9871 77.8907 55.1931 78.0406 55.3577 78.2309L56.0825 77.7244C55.5357 77.1928 54.846 76.9987 54.0309 76.9987C52.7341 76.9987 51.5227 77.5833 51.5227 78.7627C51.5227 79.7857 52.3128 80.1661 53.3486 80.4509L53.5474 80.5073C54.7197 80.8392 55.2674 80.9942 55.2674 81.7108C55.2674 82.4113 54.4246 82.7716 53.6722 82.7716C53.0376 82.7716 52.413 82.5424 52.1071 82.0888L51.3546 82.5927C51.8563 83.195 52.7642 83.447 53.612 83.447C54.9438 83.447 56.1979 82.8472 56.1979 81.6453C56.1979 80.4433 55.1696 80.1359 53.9982 79.826C52.8269 79.516 52.4507 79.2641 52.4507 78.6971C52.4507 77.9714 53.2533 77.6665 54.0233 77.6665C54.2739 77.6518 54.5245 77.695 54.7559 77.7928ZM37.8338 77.15H36.9627V83.2882H37.8338V77.15ZM41.7332 77.15H42.8293L47.0857 82.245H47.1033V77.15H47.9761V83.2882H46.875L42.6237 78.183H42.6035V83.2882H41.7332V77.15ZM64.6379 77.8252H62.2075V83.2882H61.3371V77.8252H58.9118V77.1525H64.6379V77.8252ZM67.7405 77.15H68.6066V83.2882H67.7405V77.15ZM77.4296 77.8252H75.0017V83.2882H74.1363V77.8252H71.7059V77.1525H77.4296V77.8252ZM83.2787 83.4393C85.2852 83.4393 86.0377 82.2727 86.0377 80.9397L86.0552 77.16H85.1824V80.8515C85.1824 81.8368 84.756 82.7742 83.2887 82.7742C81.8215 82.7742 81.3926 81.8368 81.3926 80.8515V77.16H80.5197V80.9397C80.5197 82.2727 81.2722 83.4393 83.2787 83.4393ZM94.8288 77.8252H92.4009V83.2882H91.5306V77.8252H89.1077V77.1525H94.8288V77.8252ZM104.981 78.946C104.73 78.7772 104.434 78.687 104.132 78.687C103.931 78.6867 103.733 78.726 103.548 78.8026C103.363 78.8793 103.194 78.9919 103.053 79.1339C102.911 79.276 102.798 79.4447 102.721 79.6305C102.644 79.8162 102.605 80.0153 102.604 80.2166C102.603 80.5203 102.692 80.8174 102.859 81.0705C103.026 81.3235 103.265 81.521 103.544 81.6379C103.823 81.7549 104.13 81.7859 104.427 81.7273C104.723 81.6687 104.996 81.5228 105.21 81.3085C105.424 81.094 105.57 80.8206 105.629 80.5228C105.689 80.225 105.659 79.9162 105.543 79.6355C105.428 79.3548 105.232 79.1149 104.981 78.946ZM114.756 79.8486H116.229C117.102 79.8486 117.703 79.5211 117.703 78.8408C117.703 78.1604 117.102 77.8328 116.229 77.8328H114.756V79.8486ZM113.894 77.16H116.073C117.418 77.16 118.641 77.5581 118.641 78.8408C118.641 80.1863 117.275 80.5365 116.236 80.5365H114.756V83.3083H113.886L113.894 77.16ZM124.109 78.0847H124.127L125.574 81.1086H122.584L124.109 78.0847ZM124.551 77.16H123.733L120.495 83.2983H121.486L122.238 81.7864H125.902L126.655 83.2983H127.676L124.551 77.16ZM131.589 79.8486H132.371C133.334 79.8486 134.589 79.8486 134.589 78.8408C134.589 77.9563 133.663 77.8328 132.816 77.8328H131.589V79.8486ZM130.723 77.16H132.597C134.017 77.16 135.527 77.3338 135.527 78.8508C135.527 79.7377 134.832 80.3224 133.688 80.466L135.769 83.2983H134.699L132.71 80.5265H131.589V83.2983H130.723V77.16ZM139.126 77.15H140.002V83.2882H139.126V77.15ZM147.385 78.2309C147.219 78.0404 147.012 77.8905 146.779 77.7927C146.547 77.6949 146.295 77.6518 146.043 77.6665C145.273 77.6665 144.476 77.9714 144.476 78.6971C144.476 79.2641 144.855 79.516 146.02 79.826C147.187 80.1359 148.221 80.4433 148.221 81.6453C148.221 82.8472 146.966 83.447 145.639 83.447C144.786 83.447 143.871 83.195 143.382 82.5927L144.135 82.0888C144.448 82.5424 145.067 82.7716 145.697 82.7716C146.449 82.7716 147.3 82.4113 147.3 81.7108C147.3 80.9957 146.75 80.8398 145.584 80.5094L145.379 80.4509C144.34 80.1661 143.563 79.7857 143.563 78.7627C143.563 77.5833 144.767 76.9987 146.053 76.9987C146.871 76.9987 147.559 77.1928 148.105 77.7244L147.385 78.2309ZM63.5043 53.877L63.4892 53.4588L66.7172 53.4562V54.3129L66.6821 63.7143C66.6821 67.7385 66.6821 72.3018 72.9726 72.3018C79.1452 72.3018 79.1452 66.8213 79.1452 63.1978C79.1452 57.939 79.1427 55.7341 79.0724 53.8745L79.0549 53.4537H81.3775V53.8669C81.3628 54.7494 81.3672 55.8615 81.3721 57.0864C81.3747 57.7432 81.3775 58.4323 81.3775 59.1359C81.3926 61.2475 81.4075 63.6312 81.3775 65.7831C81.3148 71.2158 77.9638 74.4588 72.4183 74.4588C66.2832 74.4588 63.429 71.7197 63.429 65.8361L63.4515 63.3162L63.4716 61.3003L63.5043 57.6567L63.5067 57.4439V57.4435V57.4425C63.5233 56.0215 63.5377 54.7939 63.5043 53.877ZM95.0822 53.0857V53.4964C95.1173 55.9457 95.333 72.4505 95.2879 73.6549L95.2678 74.0758H97.4023V73.6827V71.6492C97.4023 68.2323 97.4023 61.6632 97.4273 59.1484L98.0168 59.7456L98.0845 59.8146C102.829 64.6438 107.733 69.6355 111.897 74.3277L112.017 74.4638H113.136V74.0506C113.114 73.0386 113.037 61.033 113.005 56.0289L113.005 56.0202L113.004 55.972L113.004 55.8414C112.996 54.6489 112.991 53.8985 112.991 53.8619V53.4587H110.618V53.8744C110.618 53.8864 110.622 54.0508 110.628 54.3392L110.629 54.3583L110.629 54.3684L110.629 54.3705V54.371C110.673 56.3152 110.836 63.5189 110.869 68.0736C107.719 64.9858 102.887 59.9692 98.7061 55.6287L97.7007 54.585L96.2535 53.0857H95.0822ZM119.662 63.7722C119.662 69.2932 122.599 72.5916 127.523 72.5916C132.462 72.5916 135.411 69.2956 135.411 63.7722C135.411 58.2488 132.447 54.9529 127.523 54.9529C122.599 54.9529 119.662 58.2514 119.662 63.7722ZM116.214 63.7722C116.214 57.2813 120.651 53.0857 127.523 53.0857C134.41 53.0857 138.865 57.2762 138.865 63.7722C138.865 70.2683 134.395 74.4638 127.523 74.4638C120.651 74.4638 116.214 70.2633 116.214 63.7722ZM154.583 53.4588C151.777 53.5519 149.028 53.6024 146.637 53.6024C144.247 53.6024 141.501 53.5519 138.694 53.4588H138.276V55.5703L138.694 55.5552C140.23 55.4998 142.832 55.4569 144.925 55.4518C144.975 57.2712 145.007 59.3777 145.007 61.3155V66.2568C145.007 68.5246 144.995 71.1427 144.872 73.6776L144.852 74.101H148.426L148.406 73.6776C148.283 71.1579 148.27 68.5221 148.27 66.2568V61.3029C148.27 59.3651 148.301 57.2712 148.354 55.4393C150.445 55.4393 153.001 55.4871 154.583 55.5426L155 55.5552V53.4461L154.583 53.4588ZM86.5243 53.4588H89.8426V73.9473H86.5243V53.4588Z" fill="#0A0908"/>
</g>
<defs>
<clipPath id="clip0_1222_565">
<rect width="125" height="39.8936" fill="white" transform="translate(30 43.5532)"/>
</clipPath>
</defs>
</svg>
